ModelForces
version=1
nRows=4
nColumns=202
inDegrees=no

This file contains the forces exerted on a model during a simulation.

A force is a generalized force, meaning that it can be either a force (N) or a torque (Nm).

Units are S.I. units (second, meters, Newtons, ...)
Angles are in degrees.

endheader
time	glut_med1_r	glut_med2_r	glut_med3_r	glut_min1_r	glut_min2_r	glut_min3_r	semimem_r	semiten_r	bifemlh_r	bifemsh_r	sar_r	add_long_r	add_brev_r	add_mag1_r	add_mag2_r	add_mag3_r	tfl_r	pect_r	grac_r	glut_max1_r	glut_max2_r	glut_max3_r	iliacus_r	psoas_r	quad_fem_r	gem_r	peri_r	rect_fem_r	vas_med_r	vas_int_r	vas_lat_r	med_gas_r	lat_gas_r	soleus_r	tib_post_r	flex_dig_r	flex_hal_r	tib_ant_r	per_brev_r	per_long_r	per_tert_r	ext_dig_r	ext_hal_r	glut_med1_l	glut_med2_l	glut_med3_l	glut_min1_l	glut_min2_l	glut_min3_l	semimem_l	semiten_l	bifemlh_l	bifemsh_l	sar_l	add_long_l	add_brev_l	add_mag1_l	add_mag2_l	add_mag3_l	tfl_l	pect_l	grac_l	glut_max1_l	glut_max2_l	glut_max3_l	iliacus_l	psoas_l	quad_fem_l	gem_l	peri_l	rect_fem_l	vas_med_l	vas_int_l	vas_lat_l	med_gas_l	lat_gas_l	soleus_l	tib_post_l	flex_dig_l	flex_hal_l	tib_ant_l	per_brev_l	per_long_l	per_tert_l	ext_dig_l	ext_hal_l	ercspn_r	ercspn_l	intobl_r	intobl_l	extobl_r	extobl_l	femur_lat_meniscii_l.femur_lat_l.force.X	femur_lat_meniscii_l.femur_lat_l.force.Y	femur_lat_meniscii_l.femur_lat_l.force.Z	femur_lat_meniscii_l.femur_lat_l.torque.X	femur_lat_meniscii_l.femur_lat_l.torque.Y	femur_lat_meniscii_l.femur_lat_l.torque.Z	femur_lat_meniscii_l.meniscus_lat_l.force.X	femur_lat_meniscii_l.meniscus_lat_l.force.Y	femur_lat_meniscii_l.meniscus_lat_l.force.Z	femur_lat_meniscii_l.meniscus_lat_l.torque.X	femur_lat_meniscii_l.meniscus_lat_l.torque.Y	femur_lat_meniscii_l.meniscus_lat_l.torque.Z	femur_med_meniscii_l.femur_med_l.force.X	femur_med_meniscii_l.femur_med_l.force.Y	femur_med_meniscii_l.femur_med_l.force.Z	femur_med_meniscii_l.femur_med_l.torque.X	femur_med_meniscii_l.femur_med_l.torque.Y	femur_med_meniscii_l.femur_med_l.torque.Z	femur_med_meniscii_l.meniscus_med_l.force.X	femur_med_meniscii_l.meniscus_med_l.force.Y	femur_med_meniscii_l.meniscus_med_l.force.Z	femur_med_meniscii_l.meniscus_med_l.torque.X	femur_med_meniscii_l.meniscus_med_l.torque.Y	femur_med_meniscii_l.meniscus_med_l.torque.Z	femur_lat_meniscii_r.femur_lat_r.force.X	femur_lat_meniscii_r.femur_lat_r.force.Y	femur_lat_meniscii_r.femur_lat_r.force.Z	femur_lat_meniscii_r.femur_lat_r.torque.X	femur_lat_meniscii_r.femur_lat_r.torque.Y	femur_lat_meniscii_r.femur_lat_r.torque.Z	femur_lat_meniscii_r.meniscus_lat_r.force.X	femur_lat_meniscii_r.meniscus_lat_r.force.Y	femur_lat_meniscii_r.meniscus_lat_r.force.Z	femur_lat_meniscii_r.meniscus_lat_r.torque.X	femur_lat_meniscii_r.meniscus_lat_r.torque.Y	femur_lat_meniscii_r.meniscus_lat_r.torque.Z	femur_med_meniscii_r.femur_med_r.force.X	femur_med_meniscii_r.femur_med_r.force.Y	femur_med_meniscii_r.femur_med_r.force.Z	femur_med_meniscii_r.femur_med_r.torque.X	femur_med_meniscii_r.femur_med_r.torque.Y	femur_med_meniscii_r.femur_med_r.torque.Z	femur_med_meniscii_r.meniscus_med_r.force.X	femur_med_meniscii_r.meniscus_med_r.force.Y	femur_med_meniscii_r.meniscus_med_r.force.Z	femur_med_meniscii_r.meniscus_med_r.torque.X	femur_med_meniscii_r.meniscus_med_r.torque.Y	femur_med_meniscii_r.meniscus_med_r.torque.Z	femur_med_tibia_l.tibia_upper_l.force.X	femur_med_tibia_l.tibia_upper_l.force.Y	femur_med_tibia_l.tibia_upper_l.force.Z	femur_med_tibia_l.tibia_upper_l.torque.X	femur_med_tibia_l.tibia_upper_l.torque.Y	femur_med_tibia_l.tibia_upper_l.torque.Z	femur_med_tibia_l.femur_med_l.force.X	femur_med_tibia_l.femur_med_l.force.Y	femur_med_tibia_l.femur_med_l.force.Z	femur_med_tibia_l.femur_med_l.torque.X	femur_med_tibia_l.femur_med_l.torque.Y	femur_med_tibia_l.femur_med_l.torque.Z	femur_lat_tibia_l.tibia_upper_l.force.X	femur_lat_tibia_l.tibia_upper_l.force.Y	femur_lat_tibia_l.tibia_upper_l.force.Z	femur_lat_tibia_l.tibia_upper_l.torque.X	femur_lat_tibia_l.tibia_upper_l.torque.Y	femur_lat_tibia_l.tibia_upper_l.torque.Z	femur_lat_tibia_l.femur_lat_l.force.X	femur_lat_tibia_l.femur_lat_l.force.Y	femur_lat_tibia_l.femur_lat_l.force.Z	femur_lat_tibia_l.femur_lat_l.torque.X	femur_lat_tibia_l.femur_lat_l.torque.Y	femur_lat_tibia_l.femur_lat_l.torque.Z	femur_med_tibia_r.tibia_upper_r.force.X	femur_med_tibia_r.tibia_upper_r.force.Y	femur_med_tibia_r.tibia_upper_r.force.Z	femur_med_tibia_r.tibia_upper_r.torque.X	femur_med_tibia_r.tibia_upper_r.torque.Y	femur_med_tibia_r.tibia_upper_r.torque.Z	femur_med_tibia_r.femur_med_r.force.X	femur_med_tibia_r.femur_med_r.force.Y	femur_med_tibia_r.femur_med_r.force.Z	femur_med_tibia_r.femur_med_r.torque.X	femur_med_tibia_r.femur_med_r.torque.Y	femur_med_tibia_r.femur_med_r.torque.Z	femur_lat_tibia_r.tibia_upper_r.force.X	femur_lat_tibia_r.tibia_upper_r.force.Y	femur_lat_tibia_r.tibia_upper_r.force.Z	femur_lat_tibia_r.tibia_upper_r.torque.X	femur_lat_tibia_r.tibia_upper_r.torque.Y	femur_lat_tibia_r.tibia_upper_r.torque.Z	femur_lat_tibia_r.femur_lat_r.force.X	femur_lat_tibia_r.femur_lat_r.force.Y	femur_lat_tibia_r.femur_lat_r.force.Z	femur_lat_tibia_r.femur_lat_r.torque.X	femur_lat_tibia_r.femur_lat_r.torque.Y	femur_lat_tibia_r.femur_lat_r.torque.Z	aACL_R	pACL_R	aPCL_R	pPCL_R	aMCL_R	aLCL_R	aPCL_L	pPCL_L	aMCL_L	aLCL_L	ground_prescribedForce_0_fx	ground_prescribedForce_0_fy	ground_prescribedForce_0_fz
      1.50209833	      7.54552089	      5.66407872	      6.06290143	      2.65818247	      3.17813173	      3.19171606	      7.08868979	      4.06058602	      6.99390825	      6.96569967	      1.52260126	      5.61160275	    109.43620647	      2.91806745	      2.45298565	      3.98612067	      4.54787753	      2.23807561	      1.54872411	      3.65499449	      5.55435801	      4.14616557	     22.64456873	     12.96344469	      3.62562456	      2.85382628	      4.08816296	     11.62878482	      9.90695387	     10.21895899	     13.43990516	      3.11094319	      2.22141670	     10.13284591	     15.47005939	      3.16229715	      2.99579208	     16.23294973	      4.18627986	      8.94640045	     11.21591769	      9.26894451	      2.08616293	      7.54552089	      5.66407872	      6.06290143	      2.65818247	      3.17813173	      3.19171606	      8.74170653	      4.08193264	      7.67995494	      7.21393094	      1.51931459	      5.61160275	      4.13992041	      2.91806745	      2.45298565	      3.98612067	      4.09619501	      2.23807561	      1.55825503	      3.65499449	      5.55435801	      4.14616557	     22.64456873	     12.96344469	      3.62562456	      2.85382628	      4.08816296	     10.66322340	      6.59069061	      7.56000511	      8.12906104	     13.94458624	      6.47478467	     31.07277729	     42.35392225	      2.20612600	      3.67498387	      8.44882960	      4.33226580	     12.44239082	      2.00535566	      5.09909723	      1.51740929	     24.99948941	     24.99948941	      8.99736762	      8.99736762	     26.80224458	     26.80224458	      2.76307435	     50.99597937	     -9.56042239	      5.21997485	     -0.02578839	      1.48581788	     -2.76307435	    -50.99597937	      9.56042239	     -1.74637766	      0.02558040	     -0.48301696	     -3.31599387	     20.97615968	     -3.40468921	      0.94473225	     -0.02138609	     -1.00501789	      3.31599387	    -20.97615968	      3.40468921	      0.28075727	      0.00368718	     -0.29758878	     67.94310133	    199.77906515	     44.06104410	    -23.17947551	      1.59784363	     28.50251635	    -67.94310133	   -199.77906515	    -44.06104410	      7.12175083	     -2.48085639	      0.26255504	     50.61456791	     55.25540836	     -5.97148047	      3.50301937	     -0.93593659	     21.03114805	    -50.61456791	    -55.25540836	      5.97148047	     -0.88919915	      0.73767387	     -0.71084482	      0.00000000	      0.00000000	      0.00000000	      0.00000000	      0.00000000	      0.00000000	      0.00000000	      0.00000000	      0.00000000	      0.00000000	      0.00000000	      0.00000000	      0.00000000	      0.00000000	      0.00000000	      0.00000000	      0.00000000	      0.00000000	      0.00000000	      0.00000000	      0.00000000	      0.00000000	      0.00000000	      0.00000000	      0.00000000	      0.00000000	      0.00000000	      0.00000000	      0.00000000	      0.00000000	      0.00000000	      0.00000000	      0.00000000	      0.00000000	      0.00000000	      0.00000000	      0.00000000	      0.00000000	      0.00000000	      0.00000000	      0.00000000	      0.00000000	      0.00000000	      0.00000000	      0.00000000	      0.00000000	      0.00000000	      0.00000000	     34.69782246	     66.76300574	      0.00000000	     16.97322708	     11.09734252	    107.30737703	      0.00000000	      0.00000000	      0.00000001	      0.00000000	    103.36618800	    -37.62220000	      0.00000000
      1.50379222	      7.54552088	      5.66407872	      6.06290142	      2.65818247	      3.17813173	      3.19171606	      7.08895186	      4.06048056	      6.99401110	      6.96584185	      1.52253515	      5.61160275	      0.00000000	      2.91806745	      2.45298565	      3.98612066	      4.54786385	      2.23807561	      1.54863623	      3.65499449	      5.55435800	      4.14616557	     22.64456873	     12.96344468	      3.62562456	      2.85382628	      4.08816296	     11.62908965	      9.90624110	     10.21859317	     13.43986530	      3.10933375	      2.22022457	     10.12584959	     15.47922080	      3.16260619	      3.00285849	     16.23465864	      4.18752005	      8.94635782	     11.21546255	      9.26782935	      2.07845026	      7.54552088	      5.66407872	      6.06290142	      2.65818247	      3.17813173	      3.19171606	      8.74170653	      4.08193263	      7.67995494	      7.21393093	      1.51931459	      5.61160275	      4.13990407	      2.91806745	      2.45298565	      3.98612066	      4.09619500	      2.23807561	      1.55825503	      3.65499449	      5.55435800	      4.14616557	     22.64456873	     12.96344468	      3.62562456	      2.85382628	      4.08816296	     10.66322340	      6.59069061	      7.56000511	      8.12906104	     13.94458623	      6.47478467	     31.07277727	     42.35392224	      2.21958061	      3.67893588	      8.44882959	      4.33226579	     12.44239082	      2.00535566	      5.09347126	      1.51765658	     24.99948940	     24.99948940	      8.99736762	      8.99736762	     26.80224458	     26.80224458	      2.76307435	     50.99597937	     -9.56042239	      5.21997485	     -0.02578839	      1.48581788	     -2.76307435	    -50.99597937	      9.56042239	     -1.74637766	      0.02558040	     -0.48301696	     -3.31599387	     20.97615968	     -3.40468921	      0.94473225	     -0.02138609	     -1.00501789	      3.31599387	    -20.97615968	      3.40468921	      0.28075727	      0.00368718	     -0.29758878	     67.99759500	    199.86118381	     44.07208812	    -23.18604179	      1.59910508	     28.52556092	    -67.99759500	   -199.86118381	    -44.07208812	      7.12453042	     -2.48257597	      0.26172231	     50.54847528	     55.18067587	     -5.96489033	      3.49886297	     -0.93467944	     21.00371239	    -50.54847528	    -55.18067587	      5.96489033	     -0.88797698	      0.73667128	     -0.70994750	      0.00000000	      0.00000000	      0.00000000	      0.00000000	      0.00000000	      0.00000000	      0.00000000	      0.00000000	      0.00000000	      0.00000000	      0.00000000	      0.00000000	      0.00000000	      0.00000000	      0.00000000	      0.00000000	      0.00000000	      0.00000000	      0.00000000	      0.00000000	      0.00000000	      0.00000000	      0.00000000	      0.00000000	      0.00000000	      0.00000000	      0.00000000	      0.00000000	      0.00000000	      0.00000000	      0.00000000	      0.00000000	      0.00000000	      0.00000000	      0.00000000	      0.00000000	      0.00000000	      0.00000000	      0.00000000	      0.00000000	      0.00000000	      0.00000000	      0.00000000	      0.00000000	      0.00000000	      0.00000000	      0.00000000	      0.00000000	     34.70374158	     66.77616689	      0.00000000	     16.97846101	     11.09741930	    107.29494803	      0.00000000	      0.00000000	      0.00000001	      0.00000000	    103.36618800	    -37.62220000	      0.00000000
      1.50548611	      7.54552088	      5.66407872	      6.06290142	      2.65818247	      3.17813173	      3.19171606	      7.08909602	      4.06033568	      6.99412973	      6.96599686	      1.52245939	      5.61160275	      0.00000000	      2.91806745	      2.45298564	      3.98612066	      4.54786127	      2.23807561	      1.54853459	      3.65499449	      5.55435800	      4.14616557	     22.64456872	     12.96344468	      3.62562456	      2.85382628	      4.08816295	     11.62929283	      9.90526934	     10.21803087	     13.43964340	      3.10757351	      2.21889585	     10.11835488	     15.48721408	      3.16269170	      3.00998410	     16.23652138	      4.18887068	      8.94654895	     11.21509223	      9.26680182	      2.07059777	      7.54552088	      5.66407872	      6.06290142	      2.65818247	      3.17813173	      3.19171606	      8.74170653	      4.08193263	      7.67995493	      7.21393093	      1.51931459	      5.61160275	      4.13990004	      2.91806745	      2.45298564	      3.98612066	      4.09619500	      2.23807561	      1.55825503	      3.65499449	      5.55435800	      4.14616557	     22.64456872	     12.96344468	      3.62562456	      2.85382628	      4.08816295	     10.66322339	      6.59069061	      7.56000510	      8.12906104	     13.94458622	      6.47478466	     31.07277725	     42.35392224	      2.23297907	      3.68239467	      8.44882959	      4.33226579	     12.44239081	      2.00535566	      5.08799992	      1.51799456	     24.99948940	     24.99948940	      8.99736762	      8.99736762	     26.80224458	     26.80224458	      2.76307435	     50.99597937	     -9.56042239	      5.21997485	     -0.02578839	      1.48581788	     -2.76307435	    -50.99597937	      9.56042239	     -1.74637766	      0.02558040	     -0.48301696	     -3.31599387	     20.97615968	     -3.40468921	      0.94473225	     -0.02138609	     -1.00501789	      3.31599387	    -20.97615968	      3.40468921	      0.28075727	      0.00368718	     -0.29758878	     68.05013133	    199.93950267	     44.08249409	    -23.19225046	      1.60032114	     28.54778029	    -68.05013133	   -199.93950267	    -44.08249409	      7.12717862	     -2.48423148	      0.26090823	     50.48422785	     55.10821852	     -5.95846080	      3.49481622	     -0.93345734	     20.97704203	    -50.48422785	    -55.10821852	      5.95846080	     -0.88679055	      0.73569632	     -0.70907211	      0.00000000	      0.00000000	      0.00000000	      0.00000000	      0.00000000	      0.00000000	      0.00000000	      0.00000000	      0.00000000	      0.00000000	      0.00000000	      0.00000000	      0.00000000	      0.00000000	      0.00000000	      0.00000000	      0.00000000	      0.00000000	      0.00000000	      0.00000000	      0.00000000	      0.00000000	      0.00000000	      0.00000000	      0.00000000	      0.00000000	      0.00000000	      0.00000000	      0.00000000	      0.00000000	      0.00000000	      0.00000000	      0.00000000	      0.00000000	      0.00000000	      0.00000000	      0.00000000	      0.00000000	      0.00000000	      0.00000000	      0.00000000	      0.00000000	      0.00000000	      0.00000000	      0.00000000	      0.00000000	      0.00000000	      0.00000000	     34.70945639	     66.78906466	      0.00000000	     16.98342182	     11.09681144	    107.28344423	      0.00000000	      0.00000000	      0.00000001	      0.00000000	    103.36618800	    -37.62220000	      0.00000000
      1.51395557	      7.54552087	      5.66407871	      6.06290141	      2.65818246	      3.17813172	      3.19171605	      7.08795875	      4.05900733	      6.99495767	      6.96699317	      1.52194840	      5.61160274	      0.00000000	      2.91806745	      2.45298564	      3.98612066	      4.54802523	      2.23807560	      1.54782989	      3.65499448	      5.55435799	      4.14616556	     22.64456871	     12.96344466	      3.62562456	      2.85382628	      4.08816294	     11.62870448	      9.89643597	     10.21219126	     13.43569011	      3.09682691	      2.21052718	     10.07480574	     15.51029516	      3.15982017	      3.04699006	     16.24807537	      4.19685691	      8.95051034	     11.21437423	      9.26361918	      2.03065254	      7.54552087	      5.66407871	      6.06290141	      2.65818246	      3.17813172	      3.19171605	      8.74170651	      4.08193263	      7.67995492	      7.21393092	      1.51931459	      5.61160274	      4.13962590	      2.91806745	      2.45298564	      3.98612066	      4.09619500	      2.23807560	      1.55825503	      3.65499448	      5.55435799	      4.14616556	     22.64456871	     12.96344466	      3.62562456	      2.85382628	      4.08816294	     10.66322337	      6.59069060	      7.56000509	      8.12906103	     13.94458617	      6.47478464	     31.07277718	     42.35392221	      2.29851609	      3.69209807	      8.44882957	      4.33226578	     12.44239079	      2.00535566	      5.06338122	      1.52107176	     24.99948936	     24.99948936	      8.99736760	      8.99736760	     26.80224457	     26.80224457	      2.76307435	     50.99597937	     -9.56042239	      5.21997485	     -0.02578839	      1.48581788	     -2.76307435	    -50.99597937	      9.56042239	     -1.74637766	      0.02558040	     -0.48301696	     -3.31599387	     20.97615968	     -3.40468921	      0.94473225	     -0.02138609	     -1.00501789	      3.31599387	    -20.97615968	      3.40468921	      0.28075727	      0.00368718	     -0.29758878	     68.09471849	    200.24320823	     44.13381108	    -23.22094230	      1.60067542	     28.56646589	    -68.09471849	   -200.24320823	    -44.13381108	      7.13784819	     -2.48560044	      0.26344840	     50.21943585	     54.78410965	     -5.95710076	      3.48823994	     -0.92852470	     20.86724886	    -50.21943585	    -54.78410965	      5.95710076	     -0.88236144	      0.73207279	     -0.70588003	      0.00000000	      0.00000000	      0.00000000	      0.00000000	      0.00000000	      0.00000000	      0.00000000	      0.00000000	      0.00000000	      0.00000000	      0.00000000	      0.00000000	      0.00000000	      0.00000000	      0.00000000	      0.00000000	      0.00000000	      0.00000000	      0.00000000	      0.00000000	      0.00000000	      0.00000000	      0.00000000	      0.00000000	      0.00000000	      0.00000000	      0.00000000	      0.00000000	      0.00000000	      0.00000000	      0.00000000	      0.00000000	      0.00000000	      0.00000000	      0.00000000	      0.00000000	      0.00000000	      0.00000000	      0.00000000	      0.00000000	      0.00000000	      0.00000000	      0.00000000	      0.00000000	      0.00000000	      0.00000000	      0.00000000	      0.00000000	     34.75525677	     66.87296971	      0.00000000	     16.93839914	     11.07014399	    107.18847238	      0.00000000	      0.00000000	      0.00000001	      0.00000000	    103.36618800	    -37.62220000	      0.00000000
